<svg width="22" height="22" viewBox="0 0 22 22" fill="none" xmlns="http://www.w3.org/2000/svg">
<g opacity="0.44">
<mask id="mask0_83_482" style="mask-type:luminance" maskUnits="userSpaceOnUse" x="0" y="0" width="22" height="22">
<path d="M17.1765 8.64706C19.2881 8.64706 21 6.93521 21 4.82353C21 2.71185 19.2881 1 17.1765 1C15.0648 1 13.3529 2.71185 13.3529 4.82353C13.3529 6.93521 15.0648 8.64706 17.1765 8.64706Z" fill="white" stroke="white" stroke-width="2"/>
<path d="M17.1765 21.0001C19.2881 21.0001 21 19.2882 21 17.1766C21 15.0649 19.2881 13.353 17.1765 13.353C15.0648 13.353 13.3529 15.0649 13.3529 17.1766C13.3529 19.2882 15.0648 21.0001 17.1765 21.0001Z" fill="white" stroke="white" stroke-width="2"/>
<path d="M4.82353 8.64706C6.93521 8.64706 8.64706 6.93521 8.64706 4.82353C8.64706 2.71185 6.93521 1 4.82353 1C2.71185 1 1 2.71185 1 4.82353C1 6.93521 2.71185 8.64706 4.82353 8.64706Z" fill="white" stroke="white" stroke-width="2"/>
<path d="M4.82353 21.0001C6.93521 21.0001 8.64706 19.2882 8.64706 17.1766C8.64706 15.0649 6.93521 13.353 4.82353 13.353C2.71185 13.353 1 15.0649 1 17.1766C1 19.2882 2.71185 21.0001 4.82353 21.0001Z" fill="white" stroke="white" stroke-width="2"/>
</mask>
<g mask="url(#mask0_83_482)">
<path d="M-3.11765 -3.11768H25.1176V25.1176H-3.11765V-3.11768Z" fill="black"/>
</g>
</g>
</svg>
