<svg width="24" height="25" viewBox="0 0 24 25" fill="none" xmlns="http://www.w3.org/2000/svg">
<path fill-rule="evenodd" clip-rule="evenodd" d="M11.5471 0C11.0735 0 10.6193 0.188138 10.2844 0.523027C9.94955 0.857915 9.76141 1.31212 9.76141 1.78573V1.9643C7.74498 2.37658 5.9328 3.47257 4.63128 5.06693C3.32976 6.6613 2.61876 8.65621 2.61851 10.7144V17.8573L0.466709 20.2287C-0.574369 21.3769 0.239923 23.2144 1.78815 23.2144H8.45426C8.76773 23.7573 9.21858 24.2081 9.76149 24.5216C10.3044 24.835 10.9202 25 11.5471 25C12.174 25 12.7899 24.835 13.3328 24.5216C13.8757 24.2081 14.3265 23.7573 14.64 23.2144H21.3061C22.8543 23.2144 23.6686 21.3751 22.6276 20.2287L20.4758 17.8573V10.7144C20.4755 8.65621 19.7645 6.6613 18.463 5.06693C17.1615 3.47257 15.3493 2.37658 13.3329 1.9643V1.78573C13.3329 1.31212 13.1447 0.857915 12.8098 0.523027C12.4749 0.188138 12.0207 0 11.5471 0ZM5.2971 18.893L4.60066 19.6573L3.80423 20.5358H19.29L18.4918 19.6573L17.7972 18.8912V10.7144C17.7972 9.89359 17.6355 9.08086 17.3214 8.32257C17.0073 7.56428 16.5469 6.87528 15.9666 6.29491C15.3862 5.71454 14.6972 5.25416 13.9389 4.94007C13.1806 4.62598 12.3679 4.46431 11.5471 4.46431C10.7264 4.46431 9.91364 4.62598 9.15535 4.94007C8.39706 5.25416 7.70806 5.71454 7.12769 6.29491C6.54732 6.87528 6.08695 7.56428 5.77285 8.32257C5.45876 9.08086 5.2971 9.89359 5.2971 10.7144V18.893Z" fill="#777777"/>
</svg>
