<svg width="16" height="16" viewBox="0 0 16 16" fill="none" xmlns="http://www.w3.org/2000/svg">
<path fill-rule="evenodd" clip-rule="evenodd" d="M8.17406 0.00189399C7.0101 -0.0234371 5.85463 0.205589 4.78833 0.672984C3.72203 1.14038 2.77059 1.83488 2.00045 2.70799C1.2303 3.5811 0.660006 4.61179 0.329377 5.7281C-0.00125271 6.84441 -0.0842481 8.01942 0.0861851 9.17112C0.256618 10.3228 0.676372 11.4234 1.31614 12.3961C1.95591 13.3688 2.80028 14.1902 3.79029 14.8028C4.78031 15.4155 5.89211 15.8046 7.04808 15.9432C8.20405 16.0817 9.37632 15.9663 10.4831 15.6049C10.6722 15.5431 10.829 15.4087 10.919 15.2313C11.009 15.0539 11.0249 14.848 10.9631 14.6589C10.9013 14.4698 10.7669 14.313 10.5895 14.223C10.4121 14.133 10.2062 14.1171 10.0171 14.1789C8.81437 14.5716 7.52321 14.6048 6.30192 14.2744C5.08064 13.944 3.98234 13.2643 3.1417 12.3188C2.30106 11.3733 1.75464 10.2029 1.56945 8.95139C1.38426 7.69983 1.56835 6.42143 2.09915 5.27297C2.62994 4.12451 3.48436 3.15592 4.55763 2.48599C5.63089 1.81606 6.87634 1.47391 8.14122 1.50151C9.40611 1.5291 10.6354 1.92524 11.6785 2.64134C12.7215 3.35745 13.5329 4.36238 14.0131 5.53289C14.0885 5.71695 14.234 5.8635 14.4175 5.9403C14.5084 5.97832 14.6058 5.99808 14.7043 5.99844C14.8028 5.9988 14.9004 5.97976 14.9916 5.94239C15.0827 5.90503 15.1656 5.85009 15.2355 5.78069C15.3054 5.7113 15.3609 5.62882 15.399 5.53795C15.437 5.44709 15.4567 5.34963 15.4571 5.25113C15.4575 5.15264 15.4384 5.05503 15.4011 4.96389C14.8101 3.52319 13.8115 2.28627 12.5277 1.40486C11.244 0.523449 9.7309 0.0358595 8.17406 0.00189399ZM8.74906 3.74989C8.74906 3.55098 8.67004 3.36022 8.52939 3.21956C8.38874 3.07891 8.19797 2.99989 7.99906 2.99989C7.80015 2.99989 7.60938 3.07891 7.46873 3.21956C7.32808 3.36022 7.24906 3.55098 7.24906 3.74989V7.68989L5.21506 9.72289C5.14137 9.79156 5.08227 9.87436 5.04128 9.96636C5.00029 10.0584 4.97825 10.1577 4.97647 10.2584C4.97469 10.3591 4.99322 10.4591 5.03094 10.5525C5.06866 10.6459 5.1248 10.7307 5.19602 10.8019C5.26724 10.8732 5.35208 10.9293 5.44546 10.967C5.53885 11.0047 5.63888 11.0233 5.73958 11.0215C5.84029 11.0197 5.9396 10.9977 6.0316 10.9567C6.1236 10.9157 6.2064 10.8566 6.27506 10.7829L8.52906 8.52989L8.74906 8.30989V3.74989ZM14.9991 14.9999C14.9991 15.2651 14.8937 15.5195 14.7062 15.707C14.5186 15.8945 14.2643 15.9999 13.9991 15.9999C13.7338 15.9999 13.4795 15.8945 13.292 15.707C13.1044 15.5195 12.9991 15.2651 12.9991 14.9999C12.9991 14.7347 13.1044 14.4803 13.292 14.2928C13.4795 14.1053 13.7338 13.9999 13.9991 13.9999C14.2643 13.9999 14.5186 14.1053 14.7062 14.2928C14.8937 14.4803 14.9991 14.7347 14.9991 14.9999ZM14.7491 8.74989C14.7491 8.55098 14.67 8.36022 14.5294 8.21956C14.3887 8.07891 14.198 7.99989 13.9991 7.99989C13.8001 7.99989 13.6094 8.07891 13.4687 8.21956C13.3281 8.36022 13.2491 8.55098 13.2491 8.74989V12.2499C13.2491 12.4488 13.3281 12.6396 13.4687 12.7802C13.6094 12.9209 13.8001 12.9999 13.9991 12.9999C14.198 12.9999 14.3887 12.9209 14.5294 12.7802C14.67 12.6396 14.7491 12.4488 14.7491 12.2499V8.74989Z" fill="#2668E8"/>
</svg>
