<svg width="12" height="16" viewBox="0 0 12 16" fill="none" xmlns="http://www.w3.org/2000/svg">
<path fill-rule="evenodd" clip-rule="evenodd" d="M10.5 6V14.5H1.5V1.5H6V4.25C6 5.216 6.784 6 7.75 6H10.5ZM10.379 4.5L7.5 1.621V4.25C7.5 4.388 7.612 4.5 7.75 4.5H10.379ZM0 1C0 0.734784 0.105357 0.48043 0.292893 0.292893C0.48043 0.105357 0.734784 0 1 0L7.586 0C7.8512 5.66374e-05 8.10551 0.105451 8.293 0.293L11.707 3.707C11.8945 3.89449 11.9999 4.14881 12 4.414V15C12 15.2652 11.8946 15.5196 11.7071 15.7071C11.5196 15.8946 11.2652 16 11 16H1C0.734784 16 0.48043 15.8946 0.292893 15.7071C0.105357 15.5196 0 15.2652 0 15V1ZM7.125 10L9 12.143V13H3V12.1L4.125 10.75L5.268 12.122L7.125 10ZM6 8.5C6 8.89782 5.84196 9.27936 5.56066 9.56066C5.27936 9.84196 4.89782 10 4.5 10C4.10218 10 3.72064 9.84196 3.43934 9.56066C3.15804 9.27936 3 8.89782 3 8.5C3 8.10218 3.15804 7.72064 3.43934 7.43934C3.72064 7.15804 4.10218 7 4.5 7C4.89782 7 5.27936 7.15804 5.56066 7.43934C5.84196 7.72064 6 8.10218 6 8.5Z" fill="#F05519"/>
</svg>
