<svg width="102" height="24" viewBox="0 0 102 24" fill="none" xmlns="http://www.w3.org/2000/svg">
<path d="M17 4H15V3C15 2.73478 14.8946 2.48043 14.7071 2.29289C14.5196 2.10536 14.2652 2 14 2C13.7348 2 13.4804 2.10536 13.2929 2.29289C13.1054 2.48043 13 2.73478 13 3V4H7V3C7 2.73478 6.89464 2.48043 6.70711 2.29289C6.51957 2.10536 6.26522 2 6 2C5.73478 2 5.48043 2.10536 5.29289 2.29289C5.10536 2.48043 5 2.73478 5 3V4H3C2.20435 4 1.44129 4.31607 0.87868 4.87868C0.316071 5.44129 0 6.20435 0 7V19C0 19.7956 0.316071 20.5587 0.87868 21.1213C1.44129 21.6839 2.20435 22 3 22H17C17.7956 22 18.5587 21.6839 19.1213 21.1213C19.6839 20.5587 20 19.7956 20 19V7C20 6.20435 19.6839 5.44129 19.1213 4.87868C18.5587 4.31607 17.7956 4 17 4ZM18 19C18 19.2652 17.8946 19.5196 17.7071 19.7071C17.5196 19.8946 17.2652 20 17 20H3C2.73478 20 2.48043 19.8946 2.29289 19.7071C2.10536 19.5196 2 19.2652 2 19V12H18V19ZM18 10H2V7C2 6.73478 2.10536 6.48043 2.29289 6.29289C2.48043 6.10536 2.73478 6 3 6H5V7C5 7.26522 5.10536 7.51957 5.29289 7.70711C5.48043 7.89464 5.73478 8 6 8C6.26522 8 6.51957 7.89464 6.70711 7.70711C6.89464 7.51957 7 7.26522 7 7V6H13V7C13 7.26522 13.1054 7.51957 13.2929 7.70711C13.4804 7.89464 13.7348 8 14 8C14.2652 8 14.5196 7.89464 14.7071 7.70711C14.8946 7.51957 15 7.26522 15 7V6H17C17.2652 6 17.5196 6.10536 17.7071 6.29289C17.8946 6.48043 18 6.73478 18 7V10Z" fill="#2668E8"/>
<path d="M96.0004 16.9986L90 10.9996L92.0011 9L96.0004 12.9993L99.9996 9L102.001 10.9996L96.0004 17V16.9986Z" fill="black"/>
<path d="M45.512 6.912V18H44.04V9.92L40.328 18H39.384L35.656 9.92V18H34.2V6.912H35.688L39.864 16L44.024 6.912H45.512ZM51.7748 9.072C52.6068 9.072 53.3588 9.25867 54.0308 9.632C54.7028 10.0053 55.2308 10.5387 55.6148 11.232C56.0094 11.9253 56.2068 12.72 56.2068 13.616C56.2068 14.5013 56.0041 15.2907 55.5988 15.984C55.1934 16.6667 54.6441 17.2 53.9508 17.584C53.2574 17.9573 52.4894 18.144 51.6468 18.144C50.8254 18.144 50.0841 17.9573 49.4228 17.584C48.7721 17.2107 48.2601 16.6827 47.8868 16C47.5241 15.3067 47.3428 14.512 47.3428 13.616C47.3428 12.7093 47.5348 11.9147 47.9188 11.232C48.3134 10.5387 48.8468 10.0053 49.5188 9.632C50.1908 9.25867 50.9428 9.072 51.7748 9.072ZM51.7268 10.272C51.1934 10.272 50.7081 10.4 50.2708 10.656C49.8334 10.912 49.4814 11.2907 49.2148 11.792C48.9588 12.2933 48.8307 12.9013 48.8307 13.616C48.8307 14.32 48.9534 14.9227 49.1988 15.424C49.4548 15.9253 49.7961 16.304 50.2228 16.56C50.6494 16.816 51.1241 16.944 51.6468 16.944C52.1801 16.944 52.6761 16.816 53.1348 16.56C53.6041 16.2933 53.9828 15.9093 54.2708 15.408C54.5588 14.9067 54.7028 14.3093 54.7028 13.616C54.7028 12.912 54.5641 12.3093 54.2868 11.808C54.0201 11.296 53.6574 10.912 53.1988 10.656C52.7508 10.4 52.2601 10.272 51.7268 10.272ZM62.3481 9.072C62.9775 9.072 63.5481 9.216 64.0601 9.504C64.5828 9.78133 64.9935 10.2027 65.2921 10.768C65.6015 11.3227 65.7561 12 65.7561 12.8V18H64.3161V13.04C64.3161 12.1547 64.1028 11.4827 63.6761 11.024C63.2495 10.5653 62.6575 10.336 61.9001 10.336C61.1535 10.336 60.5615 10.5653 60.1241 11.024C59.6975 11.4827 59.4841 12.1547 59.4841 13.04V18H58.0281V9.216H59.4841V10.64C59.7721 10.128 60.1668 9.73867 60.6681 9.472C61.1695 9.20533 61.7295 9.072 62.3481 9.072ZM72.155 16.816V18H70.683C69.9363 18 69.3657 17.8187 68.971 17.456C68.587 17.0933 68.395 16.5227 68.395 15.744V10.4H67.259V9.216H68.395V7.04H69.867V9.216H72.139V10.4H69.867V15.744C69.867 16.1387 69.947 16.416 70.107 16.576C70.267 16.736 70.5497 16.816 70.955 16.816H72.155ZM78.0825 9.072C78.7118 9.072 79.2825 9.216 79.7945 9.504C80.3172 9.78133 80.7278 10.2027 81.0265 10.768C81.3358 11.3227 81.4905 12 81.4905 12.8V18H80.0505V13.04C80.0505 12.1547 79.8372 11.4827 79.4105 11.024C78.9838 10.5653 78.3918 10.336 77.6345 10.336C76.8878 10.336 76.2958 10.5653 75.8585 11.024C75.4318 11.4827 75.2185 12.1547 75.2185 13.04V18H73.7625V6.16H75.2185V10.64C75.5065 10.128 75.9012 9.73867 76.4025 9.472C76.9038 9.20533 77.4638 9.072 78.0825 9.072Z" fill="black"/>
</svg>
