<svg width="26" height="30" viewBox="0 0 26 30" fill="none" xmlns="http://www.w3.org/2000/svg">
<path d="M7.532 4.06503L10.318 7.32503L10.017 7.66103C4.283 8.94703 0 14.068 0 20.19C0 25.572 4.368 29.94 9.75 29.94H15.92C21.302 29.94 25.67 25.573 25.67 20.191C25.68 14.068 21.397 8.94703 15.663 7.66103C15.6863 7.44971 15.6481 7.23616 15.553 7.04603L17.923 4.33303L18.076 4.09703C18.2547 3.70736 18.3004 3.26979 18.2061 2.85161C18.1118 2.43343 17.8827 2.0578 17.5541 1.7825C17.2256 1.5072 16.8156 1.34746 16.3874 1.32787C15.9592 1.30827 15.5364 1.42989 15.184 1.67403L14.341 0.67403C14.1519 0.462411 13.9203 0.293013 13.6614 0.176878C13.4024 0.0607421 13.1219 0.000474531 12.8381 2.79097e-06C12.5543 -0.000468949 12.2736 0.0588657 12.0143 0.17414C11.7549 0.289414 11.5228 0.45804 11.333 0.66903L10.45 1.65503C10.0985 1.40581 9.67477 1.27934 9.24422 1.29518C8.81367 1.31101 8.40033 1.46828 8.06814 1.74264C7.73594 2.017 7.50341 2.39317 7.40649 2.81297C7.30958 3.23278 7.35369 3.67282 7.532 4.06503ZM11.331 5.45003L9.635 3.49003C10.029 3.67989 10.4748 3.7338 10.9028 3.64333C11.3307 3.55286 11.7165 3.32312 12 2.99003L12.8 1.95203L13.688 3.00403C13.9649 3.32601 14.3384 3.5499 14.7528 3.64235C15.1673 3.73479 15.6005 3.69084 15.988 3.51703L14.3 5.45003H11.331ZM2 20.19C2 14.202 6.852 9.35003 12.84 9.35003C18.828 9.35003 23.68 14.202 23.67 20.188V20.19C23.6692 22.2452 22.8524 24.216 21.3992 25.6692C19.946 27.1225 17.9752 27.9392 15.92 27.94H9.75C7.69482 27.9392 5.72404 27.1225 4.2708 25.6692C2.81757 24.216 2.0008 22.2452 2 20.19Z" fill="white"/>
</svg>
