<svg width="18" height="18" viewBox="0 0 18 18" fill="none" xmlns="http://www.w3.org/2000/svg">
<circle opacity="0.2" cx="9" cy="9" r="9" fill="url(#paint0_linear_1_6)"/>
<path d="M13.2529 7.25821C13.2057 7.15645 13.1156 7.07558 13.0021 7.03332C12.9463 7.01198 12.8863 7.00066 12.8256 7H10.5038C10.3807 7 10.2625 7.04388 10.1755 7.12198C10.0884 7.20008 10.0394 7.30601 10.0394 7.41647C10.0394 7.52692 10.0884 7.63285 10.1755 7.71095C10.2625 7.78905 10.3807 7.83293 10.5038 7.83293H11.7065L9.11071 10.161L7.58295 8.78664C7.53978 8.7476 7.48842 8.71662 7.43183 8.69548C7.37525 8.67433 7.31455 8.66345 7.25325 8.66345C7.19195 8.66345 7.13125 8.67433 7.07467 8.69548C7.01808 8.71662 6.96672 8.7476 6.92355 8.78664L4.13736 11.2854C4.09383 11.3241 4.05929 11.3702 4.03571 11.421C4.01214 11.4717 4 11.5261 4 11.5811C4 11.6361 4.01214 11.6905 4.03571 11.7413C4.05929 11.792 4.09383 11.8381 4.13736 11.8768C4.18053 11.9158 4.23189 11.9468 4.28847 11.968C4.34506 11.9891 4.40576 12 4.46706 12C4.52836 12 4.58905 11.9891 4.64564 11.968C4.70223 11.9468 4.75359 11.9158 4.79676 11.8768L7.25325 9.66954L8.78101 11.0439C8.82418 11.0829 8.87554 11.1139 8.93213 11.135C8.98871 11.1562 9.04941 11.1671 9.11071 11.1671C9.17201 11.1671 9.23271 11.1562 9.2893 11.135C9.34588 11.1139 9.39724 11.0829 9.44041 11.0439L12.3613 8.42015V9.49879C12.3613 9.60925 12.4102 9.71518 12.4973 9.79328C12.5844 9.87138 12.7025 9.91526 12.8256 9.91526C12.9488 9.91526 13.0669 9.87138 13.154 9.79328C13.2411 9.71518 13.29 9.60925 13.29 9.49879V7.41647C13.2893 7.36204 13.2766 7.30828 13.2529 7.25821Z" fill="#08A972"/>
<defs>
<linearGradient id="paint0_linear_1_6" x1="9" y1="0" x2="9" y2="18" gradientUnits="userSpaceOnUse">
<stop stop-color="#09D690"/>
<stop offset="1" stop-color="#13845E"/>
</linearGradient>
</defs>
</svg>
